<?xml version="1.0" encoding="UTF-8" standalone="no"?>
<svg
   xmlns:dc="http://purl.org/dc/elements/1.1/"
   xmlns:cc="http://creativecommons.org/ns#"
   xmlns:rdf="http://www.w3.org/1999/02/22-rdf-syntax-ns#"
   xmlns:svg="http://www.w3.org/2000/svg"
   xmlns="http://www.w3.org/2000/svg"
   id="svg8"
   version="1.1"
   viewBox="0 0 210 297"
   height="297mm"
   width="210mm">
  <defs
     id="defs2" />
  <metadata
     id="metadata5">
    <rdf:RDF>
      <cc:Work
         rdf:about="">
        <dc:format>image/svg+xml</dc:format>
        <dc:type
           rdf:resource="http://purl.org/dc/dcmitype/StillImage" />
        <dc:title></dc:title>
      </cc:Work>
    </rdf:RDF>
  </metadata>
  <g
     id="layer1">
    <path
       id="path858"
       d="m -92.830349,-12.253439 c -13.791111,-0.04279 -13.071911,-0.17516 -13.071911,-0.17516 l -1.04523,-1.421507 -3.721,-0.04181 c -0.72657,0.165586 -0.69116,1.239985 -0.0418,1.421507 l 2.80121,0.08362 1.79778,9.7415029 c 0,0 -0.42625,0.5202999 -0.47187,0.9170516 -0.0456,0.3967518 0.17921,1.13159062 0.17921,1.13159062 l 0.60987,0.0516056 c -0.61513,0.32886246 -1.02901,0.79132754 -1.03306,1.40721471 -0.0173,0.93706047 0.69372,1.59103037 1.5823,1.62988907 0.88438,0.056709 1.72724,-0.6956341 1.77142,-1.51794531 0.0278,-0.51715899 -0.40688,-1.26005641 -0.88189,-1.31990992 h 8.570854 c -0.787401,0.3771355 -0.892139,1.31941959 -0.650069,1.88361063 0.109858,0.2560466 0.32517,0.5373163 0.56819,0.6987242 0.631863,0.3456627 1.358568,0.3592041 1.940009,0.01489 0.402074,-0.2437576 0.627279,-0.6457118 0.706929,-1.0498528 0.05494,-0.27877279 0.0204,-0.58705443 -0.100724,-0.86319549 -0.214991,-0.39251668 -0.457069,-0.62580344 -0.833783,-0.72598515 0,0 0.610477,-0.12258976 0.794371,-0.33447219 0.183894,-0.21188243 0.278519,-0.34859697 0.209045,-0.79437147 -0.06947,-0.4457745 -0.752562,-0.4598993 -0.752562,-0.4598993 l -10.6613,-0.083618 c 0,0 0.0981,-0.5346793 0.0772,-0.7994698 -0.0209,-0.2647905 -0.20266,-0.7892732 -0.20266,-0.7892732 l 12.181361,-1.502906 c 0.38911,-0.078424 0.667314,-0.2672865 0.685918,-0.6630554 l -0.09822,-5.7043033 c -0.02373,-0.496293 -0.51291,-0.733266 -0.909551,-0.734472 z"
       style="fill:none;stroke:#000000;stroke-width:0.26458332px;stroke-linecap:butt;stroke-linejoin:miter;stroke-opacity:1" />
  </g>
</svg>
